<svg
    id="logo"
    viewBox="0 0 466 122"
    fill="none"
    stroke="white"
    stroke-width="3"
    xmlns="http://www.w3.org/2000/svg"
  >
    <path
      d="M111.328 84.768C111.424 85.344 111.472 86.016 111.472 86.784C111.472 87.456 111.376 88.176 111.184 88.944H81.088C80.896 87.408 80.896 86.016 81.088 84.768C84.64 84.288 87.088 83.616 88.432 82.752C89.872 81.792 90.544 80.16 90.448 77.856L85.984 11.616L81.376 23.712L55.456 88.944H52L27.664 22.272L23.344 9.88799L17.584 82.752C20.368 83.904 23.968 84.576 28.384 84.768C28.384 85.824 28.192 87.216 27.808 88.944H0.160004C0.160004 87.696 0.352004 86.304 0.736004 84.768C7.552 83.808 11.104 81.264 11.392 77.136L16.864 6.86399C14.368 5.99999 11.968 5.42399 9.664 5.13599C9.376 3.79199 9.424 2.39999 9.808 0.959991H29.536L55.168 71.52L83.248 0.959991H102.112C102.496 2.59199 102.64 3.98399 102.544 5.13599C97.648 5.61599 95.344 8.06399 95.632 12.48L100.96 82.608C104.224 83.856 107.68 84.576 111.328 84.768Z"
    />
    <path
      d="M130.281 121.344H128.409C127.449 118.944 126.969 116.88 126.969 115.152C126.969 113.52 127.065 112.224 127.257 111.264H129.993C133.065 111.264 135.465 110.64 137.193 109.392C139.017 108.144 140.793 105.744 142.521 102.192L147.705 91.104L125.241 35.664C124.185 32.88 122.985 30.96 121.641 29.904C120.297 28.848 117.993 28.128 114.729 27.744C114.537 26.592 114.441 25.68 114.441 25.008C114.441 24.336 114.441 23.808 114.441 23.424H144.105C144.489 24.576 144.681 26.016 144.681 27.744C140.265 28.128 136.905 28.8 134.601 29.76L152.889 79.872C153.177 78.336 153.705 76.608 154.473 74.688L169.449 36.672C170.025 35.232 170.313 33.984 170.313 32.928C170.313 31.872 170.025 31.008 169.449 30.336C168.201 28.992 165.273 28.128 160.665 27.744C160.281 25.824 160.185 24.384 160.377 23.424H186.729C186.825 24.768 186.585 26.208 186.009 27.744C184.089 28.032 181.929 28.512 179.529 29.184L148.281 103.776C145.689 110.016 143.049 114.48 140.361 117.168C137.673 119.952 134.313 121.344 130.281 121.344Z"
    />
    <path
      d="M211.624 40.56V41.568C213.928 35.616 217.384 30.816 221.992 27.168C226.6 23.52 231.544 21.696 236.824 21.696C237.304 22.848 237.544 24.288 237.544 26.016C237.544 27.648 237.208 29.616 236.536 31.92C228.568 31.92 222.04 34.56 216.952 39.84C214.072 43.008 212.296 46.944 211.624 51.648V81.6C215.944 83.328 220.984 84.336 226.744 84.624C226.744 86.448 226.552 87.888 226.168 88.944H191.464C191.368 87.792 191.416 86.352 191.608 84.624C195.256 84.144 197.752 83.424 199.096 82.464C200.536 81.504 201.256 79.824 201.256 77.424V31.776C198.472 31.68 196.312 31.632 194.776 31.632C193.24 31.632 192.04 31.632 191.176 31.632C191.176 30.48 191.368 29.232 191.752 27.888C198.088 25.392 204.328 23.616 210.472 22.56C211.24 27.456 211.624 33.456 211.624 40.56Z"
    />
    <path
      d="M319.558 0.959991C319.558 2.11199 319.414 3.50399 319.126 5.13599C316.438 5.51999 314.422 6.19199 313.078 7.15199C311.734 8.11199 310.246 9.83999 308.614 12.336L283.414 52.656V82.752C286.582 84 289.942 84.672 293.494 84.768C293.494 86.304 293.35 87.696 293.062 88.944H262.966C262.87 87.504 262.966 86.112 263.254 84.768C266.71 84.288 269.11 83.616 270.454 82.752C271.798 81.792 272.47 80.16 272.47 77.856V54.096L245.254 6.72C242.47 5.75999 239.974 5.23199 237.766 5.13599C237.382 3.02399 237.19 1.63199 237.19 0.959991H266.278C266.758 2.39999 266.998 3.79199 266.998 5.13599C262.966 5.51999 260.47 6.23999 259.51 7.29599C259.126 7.77599 258.934 8.44799 258.934 9.31199C258.934 10.08 259.318 11.184 260.086 12.624L279.958 48.48H280.246C280.918 46.08 282.07 43.632 283.702 41.136L305.158 6.86399C302.374 5.80799 299.446 5.23199 296.374 5.13599C296.374 3.50399 296.518 2.11199 296.806 0.959991H319.558Z"
    />
    <path
      d="M341.508 76.992C345.06 82.08 350.051 84.624 356.483 84.624C362.915 84.624 367.619 82.224 370.595 77.424C373.667 72.528 375.203 66 375.203 57.84C375.203 48.048 373.476 40.512 370.02 35.232C366.563 29.856 361.62 27.168 355.188 27.168C348.852 27.168 344.099 29.712 340.931 34.8C337.859 39.792 336.323 46.464 336.323 54.816C336.323 64.416 338.052 71.808 341.508 76.992ZM356.052 21.696C365.268 21.696 372.611 24.864 378.083 31.2C383.651 37.44 386.435 45.744 386.435 56.112C386.435 66.48 383.604 74.832 377.94 81.168C372.276 87.504 364.74 90.672 355.332 90.672C346.02 90.672 338.676 87.552 333.299 81.312C327.923 74.976 325.236 66.624 325.236 56.256C325.236 45.888 328.068 37.536 333.732 31.2C339.396 24.864 346.836 21.696 356.052 21.696Z"
    />
    <path
      d="M455.525 35.088V80.448C459.557 80.64 462.677 80.736 464.885 80.736C464.981 81.792 465.029 82.608 465.029 83.184C465.029 83.76 465.029 84.192 465.029 84.48C459.557 87.168 453.365 88.896 446.453 89.664C445.781 86.112 445.349 81.216 445.157 74.976C439.301 85.44 431.909 90.672 422.981 90.672C417.509 90.672 412.901 88.752 409.157 84.912C405.413 81.072 403.541 75.6 403.541 68.496V31.632C402.293 31.536 400.949 31.488 399.509 31.488C398.165 31.488 396.677 31.536 395.045 31.632C395.045 30.576 395.237 29.28 395.621 27.744C402.629 24.768 408.725 22.992 413.909 22.416V67.632C413.909 72.336 415.013 76.032 417.221 78.72C419.525 81.408 422.501 82.752 426.149 82.752C429.797 82.752 433.253 81.504 436.517 79.008C439.877 76.416 442.757 72.768 445.157 68.064V36.24C445.157 31.728 443.813 28.608 441.125 26.88C441.317 25.824 441.557 25.104 441.845 24.72C445.397 23.184 449.621 22.416 454.517 22.416C454.997 22.416 455.525 22.416 456.101 22.416C455.717 25.872 455.525 30.096 455.525 35.088Z"
    />
  </svg>