<svg xmlns="http://www.w3.org/2000/svg">
  <defs>

    <symbol id="chrome" viewBox="0 0 1024 1024">
      <path d="M510.272 0q137.152-1.152 257.728 68.576 132.576 76.576 201.152 212.576l-424-22.272q-91.424-5.152-168 42.56t-105.728 131.136l-157.728-242.272q73.152-90.848 177.728-140.288t218.848-50.016zM83.424 231.424l192.576 378.848q41.152 81.728 120.576 124t167.424 25.728l-131.424 257.728q-121.152-18.848-220-90.016t-155.712-180.576-56.864-235.136q0-152.576 83.424-280.576zM989.728 328q33.152 85.728 34.016 177.44t-27.712 174.848-87.424 155.424-140.576 119.712q-131.424 76-284.576 68l231.424-356q50.272-74.848 47.136-166.016t-60.864-158.56zM512 339.424q71.424 0 122.016 50.56t50.56 122.016-50.56 122.016-122.016 50.56-122.016-50.56-50.56-122.016 50.56-122.016 122.016-50.56z" p-id="2126"></path>
    </symbol>
      
    <symbol id="code" viewBox="-230 0 1500 800" >
      <path class="icon" d="M219.8,324.7c26-26.3,26-68.6,0-94.9l-0.9-0.9c-12.4-12.6-29.3-19.7-47-19.7c-17.7,0-34.6,7.1-47,19.7
			l-238.1,240.4c-26,26.3-26,68.7,0,95l238.1,240.4c12.4,12.6,29.3,19.7,47,19.7c17.7,0,34.6-7.1,47-19.7l0.9-0.9
			c26-26.3,26-68.6,0-94.9L76.6,564.3c-26-26.3-26-68.7,0-95L219.8,324.7z M1135,469.3L896.8,228.9c-12.4-12.6-29.3-19.7-47-19.7
			c-17.7,0-34.6,7.1-47,19.7l-0.9,0.9c-26,26.3-26,68.6,0,94.9l143.3,144.6c26,26.3,26,68.7,0,95L801.9,708.9
			c-26,26.3-26,68.6,0,94.9l0.9,0.9c12.4,12.6,29.3,19.7,47,19.7c17.7,0,34.6-7.1,47-19.7L1135,564.3
			C1160.9,538,1160.9,495.6,1135,469.3L1135,469.3z M735.1,188.5L392.1,922.2c-11.1,23.1-30.6,51.6-55.8,51.6H335
			c-48.8,0-80.8-66.4-59.1-111.2l340.9-726.9c11.1-23,52.3-41.1,52.3-41.1v-1.6C735.6,93.1,756.6,143.7,735.1,188.5L735.1,188.5z
			 M735.1,188.5"></path>
    </symbol>

    <symbol id="lang" viewBox="0 0 1024 1024" >
      <path d="M911.330758 158.080968c0-0.516042 0-1.032085 0-1.548127L911.330758 100.284226c0-17.717453-14.277171-31.994625-31.994625-31.994625-17.717453 0-31.994625 14.277171-31.994625 31.994625 0 0 0 25.802117-25.802117 25.802117l-622.69108 0c-25.802117 0-25.802117-25.802117-25.802117-25.802117 0-17.717453-14.277171-31.994625-31.994625-31.994625S109.056946 82.566773 109.056946 100.284226l0 153.952629c0 17.717453 14.277171 31.994625 31.994625 31.994625s31.994625-14.277171 31.994625-31.994625l0-0.172014c0-63.989249 63.989249-63.989249 63.989249-63.989249l152.060474 0c13.589115 1.204099 56.248614 8.944734 59.688896 57.452713l0 584.847976c-3.440282 48.507979-46.099782 56.248614-59.688896 57.452713l-37.843104 0c-17.717453 0-31.994625 14.277171-31.994625 31.994625s14.277171 31.994625 31.994625 31.994625l129.526625 0 0 0 0 0 59.172854 0 0 0 0 0 129.526625 0c17.717453 0 31.994625-14.277171 31.994625-31.994625s-14.277171-31.994625-31.994625-31.994625l-38.015118 0c-13.589115-1.204099-56.248614-8.944734-59.688896-57.452713l0-584.847976c3.440282-48.507979 46.099782-56.248614 59.688896-57.452713l151.88846 0c0 0 63.989249-0.172014 63.989249 63.989249l0 0.172014c0 17.717453 14.277171 31.994625 31.994625 31.994625s31.994625-14.277171 31.994625-31.994625l0-94.607761C911.330758 159.113052 911.330758 158.59701 911.330758 158.080968z" p-id="4338"></path>
    </symbol>

    <symbol id="fire" viewBox="0 0 1024 1024" >
      <path d="M559.999578 47.716953c0-47.603954-61.30594-65.529936-88.297914-26.075974C223.999906 383.702625 575.999563 400.000609 575.999563 576.000437c0 71.25793-58.227943 128.915874-129.699874 127.987876C375.959758 703.076313 319.999813 644.440371 319.999813 574.092439v-171.019833c0-43.405958-52.941948-64.449937-82.86392-33.007967C183.601946 426.316584 128 522.66449 128 640.000375c0 211.737793 172.261832 383.999625 383.999625 383.999625s383.999625-172.261832 383.999625-383.999625c0-340.579667-335.999672-386.005623-335.999672-592.283422z" p-id="2253"></path>
    </symbol>

    <symbol id="design" viewBox="0 0 1024 900" >
      <path d="M879.0016 804.864V621.226667a51.2 51.2 0 0 1 102.4 0v307.2a51.2 51.2 0 0 1-51.2 51.2h-307.2a51.2 51.2 0 0 1 0-102.4h183.637333l-286.037333-286.037334-285.969067 286.037334h183.637334a51.2 51.2 0 0 1 0 102.4h-307.2a51.2 51.2 0 0 1-51.2-51.2V621.226667a51.2 51.2 0 0 1 102.4 0v183.637333L448.170667 518.826667l-286.037334-286.037334V416.426667a51.2 51.2 0 1 1-102.4 0V109.226667a51.2 51.2 0 0 1 51.2-51.2h307.2a51.2 51.2 0 0 1 0 102.4H234.632533l286.037334 286.037333 285.969066-286.037333h-183.637333a51.2 51.2 0 0 1 0-102.4h307.2a51.2 51.2 0 0 1 51.2 51.2v307.2a51.2 51.2 0 1 1-102.4 0V232.789333L593.032533 518.826667l286.037334 286.037333z" p-id="13408"></path>
    </symbol>

    <symbol id="team" viewBox="0 0 1280 1100">
      <path d="M192 448c70.6 0 128-57.4 128-128s-57.4-128-128-128-128 57.4-128 128 57.4 128 128 128z m896 0c70.6 0 128-57.4 128-128s-57.4-128-128-128-128 57.4-128 128 57.4 128 128 128z m64 64h-128c-35.2 0-67 14.2-90.2 37.2 80.6 44.2 137.8 124 150.2 218.8h132c35.4 0 64-28.6 64-64v-64c0-70.6-57.4-128-128-128z m-512 0c123.8 0 224-100.2 224-224S763.8 64 640 64 416 164.2 416 288s100.2 224 224 224z m153.6 64h-16.6c-41.6 20-87.8 32-137 32s-95.2-12-137-32h-16.6C359.2 576 256 679.2 256 806.4V864c0 53 43 96 96 96h576c53 0 96-43 96-96v-57.6c0-127.2-103.2-230.4-230.4-230.4z m-447.4-26.8C323 526.2 291.2 512 256 512H128c-70.6 0-128 57.4-128 128v64c0 35.4 28.6 64 64 64h131.8c12.6-94.8 69.8-174.6 150.4-218.8z" p-id="8351"></path>
    </symbol>

  </defs>
</svg>